<svg xmlns="http://www.w3.org/2000/svg" width="1200" height="720" viewBox="0 0 1200 720" role="img" aria-label="In-home appliance repair illustration">
  <defs>
    <linearGradient id="bg" x1="0" y1="0" x2="0" y2="1">
      <stop offset="0" stop-color="#f7efe5"/>
      <stop offset="1" stop-color="#fffdf9"/>
    </linearGradient>
    <linearGradient id="blue" x1="0" y1="0" x2="0" y2="1">
      <stop offset="0" stop-color="#ff6a2b"/>
      <stop offset="1" stop-color="#ef5a1b"/>
    </linearGradient>
  </defs>
  <rect width="1200" height="720" fill="url(#bg)"/>
  <circle cx="210" cy="140" r="140" fill="#f1e2d2"/>
  <circle cx="1040" cy="120" r="120" fill="#e1f0f1"/>
  <rect x="750" y="160" width="320" height="440" rx="22" fill="#fffdf9" stroke="#d7cbbb" stroke-width="4"/>
  <rect x="780" y="220" width="260" height="280" rx="18" fill="#fbf6ef" stroke="#e2d6c6" stroke-width="4"/>
  <circle cx="910" cy="540" r="14" fill="#a39a8f"/>
  <rect x="160" y="520" width="520" height="70" rx="18" fill="#fffdf9" stroke="#d7cbbb" stroke-width="4"/>
  <path d="M256 520c26-62 62-128 118-170 38-28 90-32 132-10 30 16 46 46 44 80-2 38-28 66-58 88-34 24-64 34-90 62-12 12-20 28-24 44" fill="none" stroke="#1f2937" stroke-width="10" stroke-linecap="round"/>
  <circle cx="458" cy="292" r="48" fill="#ffe6d5" stroke="#e5c2aa" stroke-width="4"/>
  <path d="M414 344c20 18 44 28 68 28 28 0 50-10 70-32 24 18 44 40 56 66 16 36 14 78-10 110-26 36-78 52-122 40-46-14-74-54-82-94-6-28-2-78 20-118z" fill="#fffdf9" stroke="#d7cbbb" stroke-width="4"/>
  <path d="M520 342c-10 18-16 34-18 52" fill="none" stroke="#1f2937" stroke-width="10" stroke-linecap="round"/>
  <path d="M504 396c46 6 86 0 124-18" fill="none" stroke="#1f2937" stroke-width="10" stroke-linecap="round"/>
  <path d="M420 382c-18 28-24 58-16 92 10 44 44 76 86 82" fill="none" stroke="#1f2937" stroke-width="10" stroke-linecap="round" opacity="0.8"/>
  <path d="M592 344c10 0 20 2 30 6l44-44c10-10 28-10 38 0l18 18c10 10 10 28 0 38l-44 44c4 10 6 20 6 30 0 52-42 94-94 94s-94-42-94-94 42-92 94-92z" fill="url(#blue)" opacity="0.16"/>
  <path d="M652 310l40 40" stroke="#ff6a2b" stroke-width="10" stroke-linecap="round"/>
  <path d="M676 286l64 64" stroke="#ff6a2b" stroke-width="10" stroke-linecap="round"/>
</svg>
